<svg width="0" height="0" class="hidden">
  <symbol version="1.1" id="css-3-logo-svgrepo-com" xmlns="http://www.w3.org/2000/svg" xmlns:xlink="http://www.w3.org/1999/xlink" x="0px" y="0px" xml:space="preserve" viewBox="0 0 36.187 36.187">
    <g>
      <path d="M35.65,1.63c-0.474-0.602-1.197-0.952-1.963-0.952H13.374c-1.381,0-2.5,1.119-2.5,2.5s1.119,2.5,2.5,2.5h17.145
		l-1.534,6.403c-0.139-0.023-0.279-0.043-0.425-0.043H7.098c-1.381,0-2.5,1.119-2.5,2.5c0,1.382,1.119,2.5,2.5,2.5h20.7
		l-1.393,5.805l-11.102,7.19L3.85,22.68c-1.159-0.748-2.708-0.41-3.452,0.752c-0.746,1.162-0.41,2.709,0.752,3.455l12.812,8.225
		c0.411,0.267,0.881,0.396,1.351,0.396c0.474,0,0.945-0.135,1.359-0.4l13.294-8.611c0.538-0.352,0.923-0.895,1.071-1.518
		l5.082-21.221C36.297,3.015,36.122,2.231,35.65,1.63z"></path>
    </g>
    <g></g>
    <g></g>
    <g></g>
    <g></g>
    <g></g>
    <g></g>
    <g></g>
    <g></g>
    <g></g>
    <g></g>
    <g></g>
    <g></g>
    <g></g>
    <g></g>
    <g></g>
  </symbol>


  <symbol version="1.1" id="octocat-hand-drawn-logo-outline-svgrepo-com" xmlns="http://www.w3.org/2000/svg" xmlns:xlink="http://www.w3.org/1999/xlink" x="0px" y="0px" xml:space="preserve" viewBox="0 0 506.478 506.478">
    <g>
      <g>
        <path d="M418.104,7.473c-1.549-4.773-5.865-7.63-10.893-7.312c-1.127-0.185-2.305-0.229-3.58-0.03
			c-24.795,3.852-48.809,13.353-71.386,28.241c-43.31-12.131-89.581-11.41-135.564,2.074c-21.647-16.641-47.677-26.37-79.531-29.729
			c-4.877-0.513-8.652,2.024-9.998,6.414c-0.635,0.98-1.087,2.021-1.389,3.161c-7.368,28.719-7.378,56.594-0.041,82.87
			C67.82,141.519,60.546,191.26,84.115,241.024c18.159,38.351,57.61,67.626,106.026,78.894c-4.009,5.52-7.046,11.521-9.069,17.905
			c-1.569,0.147-3.131,0.224-4.654,0.224c-19.723,0-33.918-12.35-48.957-25.421c-4.232-3.687-8.61-7.49-13.139-11.029
			c-14.353-11.197-29.945-16.641-47.672-16.641c-3.182,0-6.49,0.178-9.641,0.519c-0.67,0-1.335,0.065-1.737,0.162l-0.817,0.081
			c-0.421,0.036-0.846,0.071-1.295,0.127c-4.844,0.686-7.99,4.174-8.028,8.882c-0.036,4.966,3.562,10.674,9.402,11.582
			c24.123,7.465,34.573,26.451,45.638,46.551c4.26,7.743,8.673,15.757,13.962,23.236c12.027,17.006,29.714,25.629,52.549,25.629
			c5.626,0,11.705-0.523,18.096-1.555c1.076,14.98-1.163,39.278-23.585,52.766c-4.177,2.504-5.964,6.957-4.677,11.608
			c1.462,5.276,6.231,8.77,11.38,8.074c0.17,0.021,0.404,0.03,0.825,0.03c16.468,0,31.506-4.58,44.044-13.324
			c-3.22,6.804-7.219,12.893-12.096,18.438c-2.875,3.266-3.537,7.551-1.762,11.472c1.808,4.011,5.72,6.692,9.724,6.692
			c0.79,0,1.579-0.102,1.938-0.219c26.662,0,47.558-13.624,59.445-38.547c9.775,24.969,27.005,40.965,52.506,48.8
			c1.097,0.34,2.188,0.518,3.255,0.518c4.17,0,7.811-2.742,9.268-6.987c1.493-4.342,0.33-9.008-2.89-11.775
			c-4.072-6.022-7.251-12.416-9.617-19.357c7.866,5.672,17.722,8.541,29.427,8.541c6.724,0,14.219-0.954,22.282-2.833
			c4.778-1.117,7.739-4.794,7.733-9.608c-0.01-4.895-3.066-9.227-7.394-10.648c-1.224-1.305-2.762-2.254-4.58-2.818
			c-27.67-8.708-25.812-39.521-24.166-66.709c0.284-4.646,0.549-9.109,0.65-13.273c0.396-16.352-0.438-37.161-10.015-55.594
			c60.505-8.887,97.498-35.892,116.266-84.759c18.438-47.984,6.611-108.115-29.396-150.046
			C427.621,55.904,425.858,31.304,418.104,7.473z M436.044,212.902c-11.237,49.259-50.333,77.284-116.194,83.297
			c-4.031,0.365-7.271,2.681-8.932,6.347c-2.971,4.276-2.707,9.486,0.68,13.36c15.442,17.661,14.488,44.32,13.568,70.111
			c-0.802,22.552-1.63,45.738,8.684,62.942c-5.393-4.905-9.109-12.66-11.42-23.613c-2.94-13.929-4.088-28.522-5.195-42.645
			c-0.903-11.512-1.838-23.42-3.742-34.992c-0.797-4.84-4.388-7.968-9.15-7.968c-3.402,0-6.764,1.564-8.988,4.185
			c-2.082,2.458-2.93,5.606-2.396,8.871c1.701,10.359,2.366,21.327,3.072,32.931c0.386,6.394,0.776,12.848,1.36,19.24
			c-0.157,0.635-0.264,1.25-0.31,1.869c-1.503,18.88-2.174,40.472,3.179,61.083c-19.951-22.896-20.302-60.342-20.611-93.755
			c-0.076-7.82-0.137-15.203-0.447-22.252c-0.305-6.692-5.732-10.191-10.942-10.191c-2.98,0-5.764,1.122-7.647,3.093
			c-1.818,1.894-2.712,4.438-2.58,7.327c0.29,6.566,0.452,13.346,0.62,20.262c0.229,9.628,0.467,19.58,1.061,29.447
			c-0.573,1.365-0.843,2.838-0.797,4.382c0.69,24.481-6.5,52.902-28.059,63.724c14.856-30.371,13.606-65.395,12.4-99.33
			c-0.154-4.464-0.317-8.917-0.437-13.34c-0.188-6.729-5.573-10.248-10.806-10.248c-2.973,0-5.771,1.123-7.678,3.078
			c-1.84,1.889-2.767,4.417-2.694,7.312c0.145,5.343,0.384,10.791,0.627,16.29c0.51,11.608,1.031,23.598,0.713,35.338
			c-0.417,0.746-0.724,1.468-0.952,2.244c-4.228,14.574-12.865,25.975-24.684,32.835c10.057-19.475,9.575-41.051,7.129-56.229
			c-0.104-5.373-4.034-10.933-10.45-10.933c-0.879,0-1.785,0.111-2.689,0.319c-8.267,2.006-15.465,2.971-21.995,2.971
			c-22.354,0-36.384-10.897-51.775-40.207c-3.021-5.769-6.078-10.994-9.204-15.727c3.156,2.574,6.307,5.286,9.531,8.063
			c4.223,3.641,8.595,7.404,13.119,10.948c17.659,13.827,36.736,18.515,59.425,14.518c1.371-0.243,2.615-0.716,3.702-1.396
			c2.998-1.178,5.032-3.687,5.74-7.104c2.397-11.553,8.277-20.754,17.481-27.365c4.009-2.874,5.542-7.627,4.009-12.396
			c-1.673-5.205-6.525-8.374-11.273-7.338c-41.989-5.23-77.805-26.548-100.876-60.08c-27.825-40.408-22.755-91.495,13.545-136.661
			c1.201-1.493,1.986-3.204,2.298-5.001c2.361-2.564,3.09-6.007,1.993-9.595c-6.683-21.833-7.485-44.089-2.455-67.966
			c25.692,3.915,47.172,13.289,63.881,27.875c4.154,3.618,10.273,3.448,14.391-0.134c43.81-12.741,86.702-13.025,127.859-0.828
			c2.944,1.222,6.174,0.823,9.038-1.152c19.312-13.287,39.142-21.955,60.545-26.459c5.032,19.51,5.621,38.303,1.798,57.376
			c-0.244,1.221-0.285,2.471-0.112,3.712c-0.305,2.943,0.69,5.81,2.798,8.112C434.831,124.048,446.221,168.308,436.044,212.902z"></path>
        <path d="M325.253,133.396c-4.24,0-8.495,0.238-12.634,0.713c-1.534-0.239-3.189-0.099-4.814,0.452
			c-8.917,3.032-22.576,5.23-40.618,6.521c-0.214,0.015-0.412,0.045-0.666,0.094c-0.218-0.043-0.437-0.074-0.675-0.094
			c-18.035-1.295-31.694-3.489-40.616-6.525c-1.623-0.551-3.283-0.686-4.812-0.452c-4.139-0.475-8.386-0.713-12.634-0.713
			c-28.833,0-55.276,10.483-70.729,28.048c-11.852,13.472-16.815,30.732-14.363,49.904c5.959,46.43,40.423,69.002,105.371,69.002
			c12.276,0,24.158-0.711,35.177-1.473c1.148-0.087,2.245-0.33,3.275-0.742c1.031,0.406,2.128,0.655,3.28,0.742
			c11.01,0.762,22.887,1.473,35.171,1.473c64.932,0,99.406-22.572,105.367-69.002c2.458-19.172-2.508-36.427-14.365-49.899
			C380.522,143.885,354.086,133.396,325.253,133.396z M387.961,216.226c-14.681,38.816-47.073,44.052-76.814,44.052
			c-11.035,0-22.358-0.828-33.312-1.635l-7.658-0.554c-0.279-0.021-0.543-0.03-0.817-0.03c-0.975,0-1.93,0.137-2.828,0.4
			c-1.153-0.34-2.392-0.467-3.641-0.37l-7.663,0.554c-10.951,0.807-22.282,1.635-33.316,1.635c-29.747,0-62.132-5.235-76.812-44.052
			c-5.164-13.66-4.222-25.74,2.798-35.901c14.246-20.632,48.992-28.183,72.396-25.395c0.147,0.015,0.297,0.025,0.551,0.025
			c13.266,4.28,31.803,5.994,45.026,6.931l0.776-0.02l0.93,0.005c12.964-0.927,31.742-2.668,44.62-6.911l0.563-0.03
			c23.435-2.788,58.148,4.763,72.402,25.395C392.181,190.485,393.125,202.566,387.961,216.226z"></path>
        <path d="M224.262,190.069c0.005-0.625,0.066-1.242-0.048-1.882c-2.511-14.32-23.262-24.311-32.837-10.971
			c-6.738,9.384-5.319,26.124-2.049,36.47c2.965,9.372,11.481,16.526,21.82,14.343c14.767-3.12,14.013-24.803,13.342-36.467
			C224.465,191.031,224.376,190.544,224.262,190.069z M206.998,212.331c-0.125-0.005-0.259,0.005-0.384-0.005
			c0.145-0.033-0.675-0.183-1.249-0.287c-1.787-7.432-3.796-17.783-1.043-25.052c1.45-3.859,4.626,7.013,4.659,7.434
			C209.483,200.266,208.282,206.646,206.998,212.331z"></path>
        <path d="M328.259,190.069c0.005-0.625,0.066-1.247-0.046-1.882c-1.975-11.258-11.836-18.288-23.119-16.775
			c-0.188,0.025-0.361,0.079-0.544,0.109c-2.193-0.149-4.443,0.63-6.267,2.174c-4.493,3.816-7.57,9.933-6.834,15.917
			c0.096,0.744,0.279,1.457,0.497,2.143c-0.649,9.209,0.574,18.304,3.036,27.23c0.26,0.947,0.666,1.722,1.133,2.412
			c0.97,1.925,2.768,3.438,4.967,4.339c5.418,2.219,11.466,2.988,17.143,1.3c0.757-0.231,1.447-0.589,2.082-1.006
			c2.098-0.695,3.895-2.308,4.662-5.091c2.641-9.582,4.088-19.426,3.529-29.373C328.462,191.031,328.376,190.544,328.259,190.069z
			 M310.995,212.331c-0.122-0.005-0.26,0.005-0.381-0.005c0.142-0.033-0.676-0.183-1.265-0.287
			c-5.378-1.008-2.082-21.533-0.808-24.963c1.468,0.493,4.312,2.262,4.372,4.08c0.005,0.142-0.025,0.261-0.015,0.406
			C313.294,198.682,312.543,205.499,310.995,212.331z"></path>
      </g>
    </g>
    <g></g>
    <g></g>
    <g></g>
    <g></g>
    <g></g>
    <g></g>
    <g></g>
    <g></g>
    <g></g>
    <g></g>
    <g></g>
    <g></g>
    <g></g>
    <g></g>
    <g></g>
  </symbol>

  <symbol version="1.1" id="picture-hanging-in-a-frame-hand-drawn-symbol-svgrepo-com" xmlns="http://www.w3.org/2000/svg" xmlns:xlink="http://www.w3.org/1999/xlink" x="0px" y="0px" xml:space="preserve" viewBox="0 0 484.984 484.984">
    <g>
      <g>
        <path d="M473.851,148.544c-0.894-9.259-7.292-14.553-14.116-15.878c-1.503-0.569-3.113-1.001-4.951-1.082
			c-29.178-1.363-58.356-2.559-87.544-3.572c-38.979-36.374-80.507-69.69-122.89-102.017c-2.011-3.27-5.502-5.626-10.524-5.626
			s-8.513,2.356-10.524,5.626c-42.833,32.743-84.446,67.027-127.276,99.765c-24.486,0.576-48.972,1.315-73.453,2.427
			c-9.63,0.437-14.681,8.221-15.231,16.224c-0.343,1.285-0.582,2.648-0.66,4.128c-4.694,93.234-7.711,186.501-6.353,279.875
			c0.025,1.838,0.343,3.463,0.774,4.986c-0.978,9.09,4.05,19.561,15.114,20.459c152.134,12.304,305.677,18.275,457.097-5.692
			c8.901-1.412,12.197-8.541,11.4-15.803c0.208-1.229,0.31-2.539,0.259-3.95C482.011,335.061,482.844,241.57,473.851,148.544z
			 M233.835,50.45c31.981,24.453,63.353,49.617,93.45,76.302c-62.718-1.777-125.449-2.559-188.174-1.8
			C170.698,100.138,201.956,74.893,233.835,50.45z M32.039,421.183c-1.043-86.62,1.597-173.144,5.799-259.634
			c135.201-5.497,270.476-2.661,405.621,3.468c7.1,83.86,6.998,168.063,9.425,252.185
			C313.62,437.712,171.909,432.121,32.039,421.183z"></path>
        <path d="M424.6,186.908c-0.7-6.833-5.743-10.732-11.115-11.71c-1.184-0.421-2.453-0.734-3.896-0.799
			c-113.34-4.961-226.81-7.323-340.199-2.501c-7.582,0.322-11.555,6.062-11.992,11.963c-0.269,0.947-0.457,1.95-0.518,3.047
			c-3.691,68.749-6.068,137.519-5.004,206.372c0.023,1.355,0.272,2.549,0.609,3.671c-0.769,6.703,3.187,14.432,11.898,15.092
			c119.741,9.069,240.605,13.478,359.79-4.204c7.008-1.036,9.603-6.297,8.973-11.649c0.163-0.903,0.239-1.873,0.209-2.909
			C431.019,324.437,431.679,255.499,424.6,186.908z M76.842,387.943c-0.822-63.866,1.252-127.671,4.565-191.445
			c106.419-4.057,212.896-1.965,319.27,2.559c5.586,61.835,5.516,123.928,7.425,185.956
			C298.483,400.13,186.938,396.006,76.842,387.943z"></path>
        <path d="M391.628,353.199c-14.472-25.684-33.169-48.586-55.74-67.567c-5.362-4.519-11.791-3.676-16.285-0.437
			c-0.909,0.487-1.808,1.031-2.65,1.686c-11.934,9.222-23.588,18.799-35.16,28.457c-10.131-18.636-21.389-36.581-34.703-53.471
			c-4.118-5.22-13.446-4.57-17.689,0c-27.027,29.117-49.045,61.931-70.744,95.09c-2.432,3.718-2.511,7.333-1.242,10.38
			c-0.114,6.348,3.9,12.999,12.043,13.437c41.692,2.239,83.365,1.254,125.07,0c0.04,0,0.071-0.011,0.106-0.011
			c28.741-0.021,57.473-0.173,86.199-1.239c9.389-0.345,13.273-9.008,11.699-16.046C393.721,360.441,393.7,356.875,391.628,353.199z
			 M188.822,356.55c15.155-22.896,30.745-45.382,48.644-66.211c14.655,20.626,26.432,43.071,37.191,65.978
			C246.038,357.069,217.431,357.455,188.822,356.55z M301.759,355.738c-2.717-5.94-5.459-11.852-8.308-17.696
			c10.963-9.217,22.033-18.286,33.261-27.173C340.854,324,353,338.757,363.374,355.017
			C342.839,355.541,322.304,355.703,301.759,355.738z"></path>
        <path d="M179.803,259.521c2.475-11.548-1.341-22.63-8.5-30.682c-7.993-8.982-20.155-14.19-32.37-12.047
			c-22.948,4.03-36.543,29.089-26.218,50.96c7.224,15.289,34.663,21.713,48.942,15.396
			C170.955,279.041,177.698,269.316,179.803,259.521z M154.804,255.438c-4.167,6.921-12.33,5.697-16.224,0.416
			c-1.363-1.848-2.201-4.194-2.163-6.865C136.661,232.138,161.875,243.675,154.804,255.438z"></path>
      </g>
    </g>
    <g></g>
    <g></g>
    <g></g>
    <g></g>
    <g></g>
    <g></g>
    <g></g>
    <g></g>
    <g></g>
    <g></g>
    <g></g>
    <g></g>
    <g></g>
    <g></g>
    <g></g>
  </symbol>

	<symbol version="1.1" id="arroba-hand-drawn-symbol-svgrepo-com" xmlns="http://www.w3.org/2000/svg" xmlns:xlink="http://www.w3.org/1999/xlink" x="0px" y="0px" xml:space="preserve" viewBox="0 0 494.474 494.474">
    <g>
      <g>
        <path d="M473.069,303.011c-5.032,0-9.785,1.944-13.74,5.621c-51.933,48.276-123.314,104.276-215.195,108.917
			c-4.133,0.214-8.315,0.315-12.489,0.315c-68.233,0.005-128.844-26.934-162.143-72.036c-26.431-35.82-35.045-80.729-24.252-126.462
			c12.314-52.161,49.135-99.437,96.093-123.372c25.781-13.142,54.096-20.088,81.882-20.088c74.598,0,133.025,48.073,145.396,119.629
			c4.839,27.964-2.169,98.188-28.122,129.021c-7.993,9.49-17.103,14.305-27.086,14.305h-0.005c-4.931,0-10.217-1.158-15.731-3.453
			c-2.656-19.393-1.066-41.919,0.614-65.699c3.752-53.08,7.632-107.958-34.484-139.532c-1.839-1.887-3.926-3.321-6.221-4.273
			l-0.295-0.188c-1.31-0.833-2.612-1.658-4.009-2.435c-5.264-2.92-11.024-3.468-16.349-1.58c-1.577,0.125-3.09,0.422-4.603,0.889
			c-55.452,17.228-108.692,53.105-142.425,95.984c-16.702,21.226-24.387,49.906-20.05,74.839
			c3.486,20.058,14.224,36.241,31.054,46.788c10.057,6.308,21.726,9.507,34.678,9.507c37.917,0,76.677-27.016,91.579-38.629
			c12.7-9.896,23.74-21.886,32.613-35.327c-0.188,2.56-0.376,5.108-0.563,7.627c-1.823,24.567-3.55,47.779-0.695,65.466
			c-0.265,7.292,3.28,13.659,9.811,17.56c14.959,8.917,29.655,13.446,43.681,13.446c59.427,0,93.582-80.44,98.853-137.56
			c5.027-54.436-9.942-105.36-42.142-143.379c-30.763-36.333-75.759-58.406-126.688-62.144c-5.695-0.421-11.456-0.635-17.123-0.635
			c-118.34,0-214.735,88.824-224.233,206.605c-4.286,53.144,11.824,101.151,46.59,138.829
			c44.349,48.073,116.644,76.774,193.382,76.774c0,0,0,0,0.005,0c4.992,0,10.037-0.127,14.99-0.381
			c96.73-4.885,175.008-66.745,232.395-120.095c6.104-5.677,8.013-13.486,5.093-20.91
			C489.903,308.744,481.656,303.011,473.069,303.011z M198.988,281.384c-12.807,10.866-39.834,27.035-61.799,27.035
			c-7.848,0-14.378-2.093-19.405-6.211c-6.886-5.642-10.339-12.309-10.547-20.367c-0.523-19.896,19.271-45.202,37.966-62.251
			c26.316-23.999,59.247-43.889,91.002-55.059C249.308,195.675,246.068,241.443,198.988,281.384z"></path>
      </g>
    </g>
    <g></g>
    <g></g>
    <g></g>
    <g></g>
    <g></g>
    <g></g>
    <g></g>
    <g></g>
    <g></g>
    <g></g>
    <g></g>
    <g></g>
    <g></g>
    <g></g>
    <g></g>
  </symbol>

</svg>